<svg id="eIYmxwi1eRP1" xmlns="http://www.w3.org/2000/svg" xmlns:xlink="http://www.w3.org/1999/xlink" viewBox="0 0 39 56" shape-rendering="geometricPrecision" text-rendering="geometricPrecision"><style><![CDATA[#eIYmxwi1eRP4 {animation: eIYmxwi1eRP4_c_o 6000ms linear infinite normal forwards}@keyframes eIYmxwi1eRP4_c_o { 0% {opacity: 0} 6.666667% {opacity: 0} 10% {opacity: 1} 100% {opacity: 1}} #eIYmxwi1eRP5 {animation: eIYmxwi1eRP5_c_o 6000ms linear infinite normal forwards}@keyframes eIYmxwi1eRP5_c_o { 0% {opacity: 0} 3.333333% {opacity: 0} 6.666667% {opacity: 1} 100% {opacity: 1}} #eIYmxwi1eRP6 {animation: eIYmxwi1eRP6_c_o 6000ms linear infinite normal forwards}@keyframes eIYmxwi1eRP6_c_o { 0% {opacity: 0} 3.333333% {opacity: 1} 100% {opacity: 1}}]]></style><path id="eIYmxwi1eRP2" d="M28.600000,46.400000C28.600000,46.600000,28.400000,46.800000,28.200000,46.800000L5.100000,46.800000C4.900000,46.800000,4.700000,46.600000,4.700000,46.400000L4.700000,9.600000C4.700000,9.400000,4.900000,9.200000,5.100000,9.200000L28.200000,9.200000C28.400000,9.200000,28.600000,9.400000,28.600000,9.600000L28.600000,13.600000L33.300000,13.600000L33.300000,6.800000C33.400000,3.100000,30.600000,0.100000,27.200000,0L6.200000,0C2.700000,0.100000,-0.100000,3.100000,0,6.800000L0,49.300000C-0.100000,53,2.700000,56,6.100000,56.100000L27.100000,56.100000C30.600000,56,33.300000,53,33.200000,49.300000L33.200000,42.400000L28.500000,42.400000L28.600000,46.400000L28.600000,46.400000ZM18.400000,53L14.900000,53C14,53,13.400000,52.200000,13.400000,51.400000C13.400000,50.500000,14.100000,49.800000,14.900000,49.800000L18.400000,49.800000C19.300000,49.800000,19.900000,50.600000,19.900000,51.400000C20,52.300000,19.300000,53,18.400000,53Z" fill="rgb(211,220,234)" stroke="none" stroke-width="1"/><path id="eIYmxwi1eRP3" d="M35.800000,17.800000L18.800000,17.800000C17,17.800000,15.600000,19.300000,15.600000,21.100000L15.600000,34.800000C15.600000,36.700000,17,38.200000,18.800000,38.200000L22,38.200000L22,42C22,42.400000,22.300000,42.700000,22.700000,42.700000C22.900000,42.700000,23,42.600000,23.100000,42.500000L27.200000,38.200000L27.200000,38.100000L35.900000,38.100000C37.700000,38.100000,39.100000,36.600000,39.100000,34.700000L39.100000,21.100000C39,19.300000,37.600000,17.800000,35.800000,17.800000Z" fill="rgb(211,220,234)" stroke="none" stroke-width="1"/><path id="eIYmxwi1eRP4" d="M25.900000,32C25.900000,31.400000,26.300000,30.900000,26.900000,30.900000L32.400000,30.900000C33,30.900000,33.400000,31.400000,33.400000,32C33.400000,32.600000,32.900000,33.100000,32.400000,33.100000L27,33.100000C26.400000,33.200000,25.900000,32.600000,25.900000,32Z" opacity="0" fill="rgb(255,255,255)" stroke="none" stroke-width="1"/><path id="eIYmxwi1eRP5" d="M21,28C21,27.400000,21.500000,26.900000,22,26.900000L32.400000,26.900000C33,26.900000,33.400000,27.400000,33.400000,28C33.400000,28.600000,32.900000,29.100000,32.400000,29.100000L22.100000,29.100000C21.500000,29.100000,21,28.600000,21,28Z" opacity="0" fill="rgb(255,255,255)" stroke="none" stroke-width="1"/><path id="eIYmxwi1eRP6" d="M21,24C21,23.400000,21.500000,22.900000,22,22.900000L32.400000,22.900000C33,22.900000,33.400000,23.400000,33.400000,24C33.400000,24.600000,32.900000,25.100000,32.400000,25.100000L22.100000,25.100000C21.500000,25.100000,21,24.600000,21,24Z" transform="matrix(1.08526047099246 0 0 1 -2.84769973114812 0)" opacity="0" fill="rgb(255,255,255)" stroke="none" stroke-width="1"/></svg>