<svg id="edyVjBwe1Uq1" xmlns="http://www.w3.org/2000/svg" xmlns:xlink="http://www.w3.org/1999/xlink" viewBox="0 0 66 47" shape-rendering="geometricPrecision" text-rendering="geometricPrecision"><style><![CDATA[#edyVjBwe1Uq2_to {animation: edyVjBwe1Uq2_to__to 6000ms linear infinite normal forwards}@keyframes edyVjBwe1Uq2_to__to { 0% {transform: translate(52.611828px,26.378770px)} 5% {transform: translate(50.614770px,26.378770px)} 10% {transform: translate(52.610000px,26.378770px)} 100% {transform: translate(52.610000px,26.378770px)}} #edyVjBwe1Uq3_to {animation: edyVjBwe1Uq3_to__to 6000ms linear infinite normal forwards}@keyframes edyVjBwe1Uq3_to__to { 0% {transform: translate(22.178232px,22.993095px)} 5% {transform: translate(24.021671px,22.993095px)} 10% {transform: translate(22.180000px,22.993095px)} 100% {transform: translate(22.180000px,22.993095px)}}]]></style><g id="edyVjBwe1Uq2_to" transform="translate(52.611828,26.378770)"><path id="edyVjBwe1Uq2" d="M65.800000,44.100000L62.200000,35.500000C63.800000,32.600000,64.700000,29.300000,64.700000,25.800000C64.700000,15.300000,56.800000,6.800000,47,6.800000C46,6.800000,44.900000,6.900000,43.900000,7.100000C46.600000,11.400000,48.200000,16.600000,48.200000,22.200000C48.200000,30.400000,44.800000,37.800000,39.300000,42.800000C41.600000,44,44.200000,44.600000,46.900000,44.600000C50.200000,44.600000,53.300000,43.600000,56,42L64,45.900000C65.200000,46.400000,66.300000,45.200000,65.800000,44.100000Z" transform="translate(-52.611828,-26.408410)" fill="rgb(211,220,234)" stroke="none" stroke-width="1"/></g><g id="edyVjBwe1Uq3_to" transform="translate(22.178232,22.993095)"><path id="edyVjBwe1Uq3" d="M22.800000,0C11.400000,0,2.100000,9.900000,2.100000,22.200000C2.100000,26.400000,3.200000,30.300000,5.100000,33.600000L0.800000,43.700000C0.200000,45.100000,1.600000,46.500000,2.800000,45.800000L12.200000,41.200000C15.300000,43.200000,18.900000,44.400000,22.900000,44.400000C34.400000,44.500000,43.700000,34.500000,43.700000,22.300000C43.600000,9.900000,34.300000,0,22.800000,0ZM22.700000,36C21.200000,36,19.900000,34.700000,19.900000,33C19.900000,31.400000,21.100000,30,22.700000,30C24.200000,30,25.500000,31.300000,25.500000,33C25.500000,34.600000,24.200000,36,22.700000,36ZM26.100000,23.800000C24.800000,25,24.800000,25.600000,24.800000,25.800000L24.800000,26.800000C24.800000,27.400000,24.400000,27.800000,23.800000,27.800000L21.300000,27.800000C20.700000,27.800000,20.300000,27.400000,20.300000,26.800000L20.300000,25.800000C20.300000,23.700000,21.300000,21.900000,23.300000,20.100000C24.700000,18.800000,26.200000,17.500000,26.200000,16.100000C26.200000,14,25.300000,13.200000,23,13.200000C19.600000,13.200000,19.500000,15.900000,19.500000,16.100000L19.500000,16.600000C19.500000,17.200000,19.100000,17.600000,18.500000,17.600000L16,17.600000C15.400000,17.600000,15,17.200000,15,16.600000L15,16C15,13,17.100000,8.400000,22.900000,8.400000C28.500000,8.400000,30.500000,12.400000,30.500000,16.100000C30.600000,19.900000,27.800000,22.400000,26.100000,23.800000Z" transform="translate(-22.178232,-22.993095)" fill="rgb(211,220,234)" stroke="none" stroke-width="1"/></g></svg>