<svg id="eyHTz46IZVo1" xmlns="http://www.w3.org/2000/svg" xmlns:xlink="http://www.w3.org/1999/xlink" viewBox="0 0 54 57" shape-rendering="geometricPrecision" text-rendering="geometricPrecision"><style><![CDATA[#eyHTz46IZVo2_tr {animation: eyHTz46IZVo2_tr__tr 6000ms linear infinite normal forwards}@keyframes eyHTz46IZVo2_tr__tr { 0% {transform: translate(27px,28.500000px) rotate(0deg)} 6.666667% {transform: translate(27px,28.500000px) rotate(15.368030deg)} 11.666667% {transform: translate(27px,28.500000px) rotate(-1.894216deg)} 16.666667% {transform: translate(27px,28.500000px) rotate(0deg)} 100% {transform: translate(27px,28.500000px) rotate(0deg)}}]]></style><g id="eyHTz46IZVo2_tr" transform="translate(27,28.500000) rotate(0)"><g id="eyHTz46IZVo2" transform="scale(0.804372,0.804372) translate(-26.999997,-28.500000)"><path id="eyHTz46IZVo3" d="M52.384600,47.974400L40,35C38.384600,37.820500,35.692300,40.641000,33,42.333300L45.384600,55.307700C47.538500,57.564100,50.769200,57.564100,52.384600,55.307700C54.538500,53.615400,54.538500,50.230800,52.384600,47.974400Z" fill="rgb(211,220,234)" stroke="none" stroke-width="1"/><path id="eyHTz46IZVo4" d="M41,21.786700C41,9.746670,31.706700,0,20.773300,0C9.293330,0,0,9.746670,0,21.786700C0,33.253300,9.293330,43,20.773300,43C31.706700,43,41,33.253300,41,21.786700ZM20.773300,37.840000C12.026700,37.840000,4.920000,30.386700,4.920000,21.786700C4.920000,12.613300,12.026700,5.160000,20.773300,5.160000C28.973300,5.160000,36.080000,12.613300,36.080000,21.786700C36.080000,30.386700,28.973300,37.840000,20.773300,37.840000Z" fill="rgb(211,220,234)" stroke="none" stroke-width="1"/><path id="eyHTz46IZVo5" d="M9,21L12,21C12,16.090900,15.500000,12.272700,20,12.272700L20,9C13.500000,9,9,13.909100,9,21Z" fill="rgb(211,220,234)" stroke="none" stroke-width="1"/></g></g></svg>