<svg id="eIATMnE6o1O1" xmlns="http://www.w3.org/2000/svg" xmlns:xlink="http://www.w3.org/1999/xlink" viewBox="0 0 57.800000 57.600000" shape-rendering="geometricPrecision" text-rendering="geometricPrecision"><style><![CDATA[#eIATMnE6o1O2_tr {animation: eIATMnE6o1O2_tr__tr 6000ms linear infinite normal forwards}@keyframes eIATMnE6o1O2_tr__tr { 0% {transform: translate(29.050000px,28.650000px) rotate(0deg)} 26.666667% {transform: translate(29.050000px,28.650000px) rotate(360deg)} 100% {transform: translate(29.050000px,28.650000px) rotate(360deg)}}]]></style><g id="eIATMnE6o1O2_tr" transform="translate(29.050000,28.650000) rotate(0)"><g id="eIATMnE6o1O2" transform="translate(-29.050000,-28.650000)"><path id="eIATMnE6o1O3" d="M29.100000,0.900000C13.800000,0.900000,1.300000,13.400000,1.300000,28.700000C1.300000,44,13.700000,56.400000,29,56.400000C44.300000,56.400000,56.800000,44,56.800000,28.700000C56.800000,13.400000,44.400000,1,29.100000,0.900000ZM47.600000,19.700000L36.400000,22.100000C35.500000,21.100000,34.400000,20.300000,33.100000,19.700000L32,8.300000C38.700000,9.300000,44.600000,13.500000,47.600000,19.700000ZM29.100000,25.100000C31.100000,25.100000,32.700000,26.700000,32.700000,28.700000C32.700000,30.700000,31.100000,32.300000,29.100000,32.300000C27.100000,32.300000,25.500000,30.700000,25.500000,28.700000C25.500000,26.700000,27.100000,25.100000,29.100000,25.100000ZM26.200000,8.300000L25,19.700000C23.800000,20.300000,22.700000,21.100000,21.700000,22.100000L10.500000,19.700000C13.600000,13.500000,19.400000,9.300000,26.200000,8.300000ZM8.500000,28.700000C8.500000,27.500000,8.600000,26.300000,8.800000,25.100000L19.300000,29.700000C19.400000,31.100000,19.900000,32.400000,20.600000,33.500000L14.800000,43.400000C10.800000,39.600000,8.500000,34.300000,8.500000,28.700000ZM29.100000,49.300000C25.700000,49.300000,22.400000,48.500000,19.500000,46.900000L27.100000,38.300000C28.400000,38.600000,29.800000,38.600000,31.100000,38.300000L38.700000,46.900000C35.800000,48.500000,32.400000,49.300000,29.100000,49.300000ZM43.400000,43.500000L37.600000,33.600000C38.300000,32.400000,38.700000,31.100000,38.900000,29.800000L49.400000,25.200000C50.500000,31.900000,48.300000,38.700000,43.400000,43.500000L43.400000,43.500000Z" fill="rgb(211,220,234)" stroke="none" stroke-width="1"/></g></g></svg>