<svg id="ehN1w3lruXc1" xmlns="http://www.w3.org/2000/svg" xmlns:xlink="http://www.w3.org/1999/xlink" viewBox="0 0 49 53" shape-rendering="geometricPrecision" text-rendering="geometricPrecision"><style><![CDATA[#ehN1w3lruXc8_tr {animation: ehN1w3lruXc8_tr__tr 6000ms linear infinite normal forwards}@keyframes ehN1w3lruXc8_tr__tr { 0% {transform: translate(35.500000px,41.500000px) rotate(0deg)} 33.333333% {transform: translate(35.500000px,41.500000px) rotate(360deg)} 100% {transform: translate(35.500000px,41.500000px) rotate(360deg)}}]]></style><path id="ehN1w3lruXc2" d="M13.300000,20.200000L8,20.200000C7.700000,20.200000,7.400000,20.500000,7.400000,20.800000L7.400000,25.500000C7.400000,25.800000,7.700000,26.100000,8,26.100000L13.300000,26.100000C13.600000,26.100000,13.900000,25.800000,13.900000,25.500000L13.900000,20.800000C13.800000,20.500000,13.600000,20.200000,13.300000,20.200000Z" fill="rgb(211,220,234)" stroke="none" stroke-width="1"/><path id="ehN1w3lruXc3" d="M27.800000,26.100000L33.100000,26.100000C33.400000,26.100000,33.700000,25.800000,33.700000,25.500000L33.700000,20.800000C33.700000,20.500000,33.400000,20.200000,33.100000,20.200000L27.800000,20.200000C27.500000,20.200000,27.200000,20.500000,27.200000,20.800000L27.200000,25.500000C27.200000,25.800000,27.500000,26.100000,27.800000,26.100000Z" fill="rgb(211,220,234)" stroke="none" stroke-width="1"/><path id="ehN1w3lruXc4" d="M23.100000,20.200000L17.800000,20.200000C17.500000,20.200000,17.200000,20.500000,17.200000,20.800000L17.200000,25.500000C17.200000,25.800000,17.500000,26.100000,17.800000,26.100000L23.100000,26.100000C23.400000,26.100000,23.700000,25.800000,23.700000,25.500000L23.700000,20.800000C23.700000,20.500000,23.500000,20.200000,23.100000,20.200000Z" fill="rgb(211,220,234)" stroke="none" stroke-width="1"/><path id="ehN1w3lruXc5" d="M13.300000,29.900000L8,29.900000C7.700000,29.900000,7.400000,30.200000,7.400000,30.500000L7.400000,35.200000C7.400000,35.500000,7.700000,35.800000,8,35.800000L13.300000,35.800000C13.600000,35.800000,13.900000,35.500000,13.900000,35.200000L13.900000,30.500000C13.800000,30.100000,13.600000,29.900000,13.300000,29.900000Z" fill="rgb(211,220,234)" stroke="none" stroke-width="1"/><path id="ehN1w3lruXc6" d="M23.100000,29.900000L17.800000,29.900000C17.500000,29.900000,17.200000,30.200000,17.200000,30.500000L17.200000,35.200000C17.200000,35.500000,17.500000,35.800000,17.800000,35.800000L23.100000,35.800000C23.400000,35.800000,23.700000,35.500000,23.700000,35.200000L23.700000,30.500000C23.700000,30.100000,23.500000,29.900000,23.100000,29.900000Z" fill="rgb(211,220,234)" stroke="none" stroke-width="1"/><path id="ehN1w3lruXc7" d="M40.600000,29L40.600000,6.900000C40.600000,5.500000,39.600000,4.400000,38.300000,4.400000L33.300000,4.400000L33.300000,4.100000C33.300000,2.100000,31.800000,0.400000,29.900000,0.400000L27.300000,0.400000C25.400000,0.400000,23.900000,2.100000,23.900000,4.100000L23.900000,4.300000L17.500000,4.300000L17.500000,4.100000C17.500000,2.100000,16,0.400000,14.100000,0.400000L11.500000,0.400000C9.600000,0.400000,8.100000,2.100000,8.100000,4.100000L8.100000,4.300000L2.700000,4.300000C1.400000,4.300000,0.400000,5.400000,0.400000,6.800000L0.400000,40.400000C0.400000,41.800000,1.400000,42.900000,2.700000,42.900000L25.400000,42.900000C26.500000,48.500000,31.100000,52.700000,36.600000,52.700000C42.900000,52.700000,48.100000,47.200000,48.100000,40.400000C48.100000,35.200000,44.900000,30.700000,40.600000,29ZM26.700000,4.100000C26.700000,3.800000,26.900000,3.600000,27.200000,3.600000L29.800000,3.600000C30.100000,3.600000,30.300000,3.800000,30.300000,4.100000L30.300000,8C30.300000,8.300000,30.100000,8.500000,29.800000,8.500000L27.200000,8.500000C26.900000,8.500000,26.700000,8.300000,26.700000,8L26.700000,4.100000ZM10.800000,4.100000C10.800000,3.800000,11,3.600000,11.300000,3.600000L13.900000,3.600000C14.200000,3.600000,14.400000,3.800000,14.400000,4.100000L14.400000,8C14.400000,8.300000,14.200000,8.500000,13.900000,8.500000L11.300000,8.500000C11,8.500000,10.800000,8.300000,10.800000,8L10.800000,4.100000ZM3.600000,16.300000L37.400000,16.300000L37.400000,28.200000C37.100000,28.100000,36.800000,28.100000,36.600000,28.100000C30.600000,28.100000,25.600000,33.100000,25.200000,39.500000L3.600000,39.500000L3.600000,16.300000ZM36.600000,49.300000C32,49.300000,28.300000,45.300000,28.300000,40.400000C28.300000,35.500000,32,31.500000,36.600000,31.500000C41.200000,31.500000,44.900000,35.500000,44.900000,40.400000C44.900000,45.300000,41.200000,49.300000,36.600000,49.300000Z" fill="rgb(211,220,234)" stroke="none" stroke-width="1"/><g id="ehN1w3lruXc8_tr" transform="translate(35.500000,41.500000) rotate(0)"><path id="ehN1w3lruXc8" d="M35.500000,43.300000L35.500000,43.300000C34.500000,43.300000,33.700000,42.500000,33.700000,41.500000L33.700000,36.900000C33.700000,35.900000,34.500000,35.100000,35.500000,35.100000L35.500000,35.100000C36.500000,35.100000,37.300000,35.900000,37.300000,36.900000L37.300000,41.500000C37.300000,42.500000,36.500000,43.300000,35.500000,43.300000Z" transform="translate(-35.500000,-41.500000)" fill="rgb(211,220,234)" stroke="none" stroke-width="1"/></g><path id="ehN1w3lruXc9" d="M41.900000,41.500000L41.900000,41.500000C41.900000,42.500000,41.100000,43.300000,40.100000,43.300000L35.500000,43.300000C34.500000,43.300000,33.700000,42.500000,33.700000,41.500000L33.700000,41.500000C33.700000,40.500000,34.500000,39.700000,35.500000,39.700000L40.100000,39.700000C41.100000,39.800000,41.900000,40.600000,41.900000,41.500000Z" fill="rgb(211,220,234)" stroke="none" stroke-width="1"/></svg>