<?xml version="1.0" encoding="utf-8"?>
<!-- Generator: Adobe Illustrator 25.2.3, SVG Export Plug-In . SVG Version: 6.00 Build 0)  -->
<svg version="1.1" id="Layer_1" xmlns="http://www.w3.org/2000/svg" xmlns:xlink="http://www.w3.org/1999/xlink" x="0px" y="0px"
	 viewBox="0 0 39 56" style="enable-background:new 0 0 39 56;" xml:space="preserve">
<style type="text/css">
	.st0{fill:#D3DCEA;}
	.st1{fill:#FFFFFF;}
</style>
<path class="st0" d="M28.6,46.4c0,0.2-0.2,0.4-0.4,0.4H5.1c-0.2,0-0.4-0.2-0.4-0.4V9.6c0-0.2,0.2-0.4,0.4-0.4h23.1
	c0.2,0,0.4,0.2,0.4,0.4v4h4.7V6.8c0.1-3.7-2.7-6.7-6.1-6.8h-21C2.7,0.1-0.1,3.1,0,6.8v42.5c-0.1,3.7,2.7,6.7,6.1,6.8h21
	c3.5-0.1,6.2-3.1,6.1-6.8v-6.9h-4.7L28.6,46.4L28.6,46.4z M18.4,53h-3.5c-0.9,0-1.5-0.8-1.5-1.6c0-0.9,0.7-1.6,1.5-1.6h3.5
	c0.9,0,1.5,0.8,1.5,1.6C20,52.3,19.3,53,18.4,53z"/>
<path class="st0" d="M35.8,17.8H18.8c-1.8,0-3.2,1.5-3.2,3.3v13.7c0,1.9,1.4,3.4,3.2,3.4h3.2V42c0,0.4,0.3,0.7,0.7,0.7
	c0.2,0,0.3-0.1,0.4-0.2l4.1-4.3v-0.1h8.7c1.8,0,3.2-1.5,3.2-3.4V21.1C39,19.3,37.6,17.8,35.8,17.8z"/>
<path class="st1" d="M25.9,32c0-0.6,0.4-1.1,1-1.1h5.5c0.6,0,1,0.5,1,1.1s-0.5,1.1-1,1.1H27C26.4,33.2,25.9,32.6,25.9,32z"/>
<path class="st1" d="M21,28c0-0.6,0.5-1.1,1-1.1h10.4c0.6,0,1,0.5,1,1.1s-0.5,1.1-1,1.1H22.1C21.5,29.1,21,28.6,21,28z"/>
<path class="st1" d="M21,24c0-0.6,0.5-1.1,1-1.1h10.4c0.6,0,1,0.5,1,1.1c0,0.6-0.5,1.1-1,1.1H22.1C21.5,25.1,21,24.6,21,24z"/>
</svg>
