<svg width="49" height="53" viewBox="0 0 49 53" fill="none" xmlns="http://www.w3.org/2000/svg">
<path d="M13.2648 20.1816H7.96184C7.65293 20.1816 7.39551 20.4568 7.39551 20.7869V25.5193C7.39551 25.8494 7.65293 26.1246 7.96184 26.1246H13.2648C13.5737 26.1246 13.8311 25.8494 13.8311 25.5193V20.7869C13.8311 20.4568 13.5737 20.1816 13.2648 20.1816Z" fill="#D3DCEA"/>
<path d="M27.7836 26.1246H33.0866C33.3955 26.1246 33.6529 25.8494 33.6529 25.5193V20.7869C33.6529 20.4568 33.3955 20.1816 33.0866 20.1816H27.7836C27.4747 20.1816 27.2173 20.4568 27.2173 20.7869V25.5193C27.2173 25.8494 27.4747 26.1246 27.7836 26.1246Z" fill="#D3DCEA"/>
<path d="M23.15 20.1816H17.8471C17.5382 20.1816 17.2808 20.4568 17.2808 20.7869V25.5193C17.2808 25.8494 17.5382 26.1246 17.8471 26.1246H23.15C23.4589 26.1246 23.7164 25.8494 23.7164 25.5193V20.7869C23.7164 20.4568 23.4589 20.1816 23.15 20.1816Z" fill="#D3DCEA"/>
<path d="M13.2648 29.9214H7.96184C7.65293 29.9214 7.39551 30.1965 7.39551 30.5267V35.259C7.39551 35.5892 7.65293 35.8643 7.96184 35.8643H13.2648C13.5737 35.8643 13.8311 35.5892 13.8311 35.259V30.5267C13.8311 30.1415 13.5737 29.9214 13.2648 29.9214Z" fill="#D3DCEA"/>
<path d="M23.15 29.9214H17.8471C17.5382 29.9214 17.2808 30.1965 17.2808 30.5267V35.259C17.2808 35.5892 17.5382 35.8643 17.8471 35.8643H23.15C23.4589 35.8643 23.7164 35.5892 23.7164 35.259V30.5267C23.7164 30.1415 23.4589 29.9214 23.15 29.9214Z" fill="#D3DCEA"/>
<path d="M40.6032 28.9858V6.86493C40.6032 5.48925 39.5735 4.38871 38.2864 4.38871H33.2409V4.11357C33.2409 2.07757 31.6963 0.426758 29.7914 0.426758H27.2171C25.3122 0.426758 23.7677 2.07757 23.7677 4.11357V4.33368H17.3321V4.11357C17.3321 2.07757 15.7875 0.426758 13.8826 0.426758H11.3083C9.4034 0.426758 7.85885 2.07757 7.85885 4.11357V4.33368H2.71037C1.42325 4.33368 0.393555 5.43422 0.393555 6.8099V40.4314C0.393555 41.8071 1.42325 42.9077 2.71037 42.9077H25.3637C26.4449 48.5204 31.0785 52.7025 36.5874 52.7025C42.92 52.7025 48.0685 47.1998 48.0685 40.4314C48.0685 35.2039 44.9279 30.7467 40.6032 28.9858ZM26.7023 4.11357C26.7023 3.83844 26.9082 3.61833 27.1657 3.61833H29.7399C29.9973 3.61833 30.2033 3.83844 30.2033 4.11357V8.02049C30.2033 8.29563 29.9973 8.51574 29.7399 8.51574H27.1657C26.9082 8.51574 26.7023 8.29563 26.7023 8.02049V4.11357ZM10.7935 4.11357C10.7935 3.83844 10.9994 3.61833 11.2568 3.61833H13.8311C14.0885 3.61833 14.2945 3.83844 14.2945 4.11357V8.02049C14.2945 8.29563 14.0885 8.51574 13.8311 8.51574H11.2568C10.9994 8.51574 10.7935 8.29563 10.7935 8.02049V4.11357ZM3.58561 16.3296H37.4111V28.2705C37.1537 28.2154 36.8448 28.2154 36.5874 28.2154C30.5637 28.2154 25.5696 33.2229 25.1577 39.606H3.58561V16.3296ZM36.5874 49.2908C32.0052 49.2908 28.2983 45.3288 28.2983 40.4314C28.2983 35.534 32.0052 31.5721 36.5874 31.5721C41.1695 31.5721 44.8764 35.534 44.8764 40.4314C44.8764 45.3288 41.1695 49.2908 36.5874 49.2908Z" fill="#D3DCEA"/>
<path d="M40.3458 39.881H37.1022V36.4143C37.1022 35.4789 36.3814 34.7085 35.5062 34.7085C34.6309 34.7085 33.9102 35.4789 33.9102 36.4143V41.5869C33.9102 42.5223 34.6309 43.2927 35.5062 43.2927H40.3458C41.221 43.2927 41.9418 42.5223 41.9418 41.5869C41.9418 40.6514 41.221 39.881 40.3458 39.881Z" fill="#D3DCEA"/>
</svg>
