<?xml version="1.0" encoding="utf-8"?>
<!-- Generator: Adobe Illustrator 25.2.3, SVG Export Plug-In . SVG Version: 6.00 Build 0)  -->
<svg version="1.1" id="Layer_1" xmlns="http://www.w3.org/2000/svg" xmlns:xlink="http://www.w3.org/1999/xlink" x="0px" y="0px"
	 viewBox="0 0 57.8 57.6" style="enable-background:new 0 0 57.8 57.6;" xml:space="preserve">
<style type="text/css">
	.st0{fill:#D3DCEA;}
</style>
<g>
	<path class="st0" d="M29.1,0.9C13.8,0.9,1.3,13.4,1.3,28.7s12.4,27.7,27.7,27.7S56.8,44,56.8,28.7C56.8,13.4,44.4,1,29.1,0.9z
		 M47.6,19.7l-11.2,2.4c-0.9-1-2-1.8-3.3-2.4L32,8.3C38.7,9.3,44.6,13.5,47.6,19.7z M29.1,25.1c2,0,3.6,1.6,3.6,3.6
		s-1.6,3.6-3.6,3.6s-3.6-1.6-3.6-3.6S27.1,25.1,29.1,25.1z M26.2,8.3L25,19.7c-1.2,0.6-2.3,1.4-3.3,2.4l-11.2-2.4
		C13.6,13.5,19.4,9.3,26.2,8.3z M8.5,28.7c0-1.2,0.1-2.4,0.3-3.6l10.5,4.6c0.1,1.4,0.6,2.7,1.3,3.8l-5.8,9.9
		C10.8,39.6,8.5,34.3,8.5,28.7z M29.1,49.3c-3.4,0-6.7-0.8-9.6-2.4l7.6-8.6c1.3,0.3,2.7,0.3,4,0l7.6,8.6
		C35.8,48.5,32.4,49.3,29.1,49.3z M43.4,43.5l-5.8-9.9c0.7-1.2,1.1-2.5,1.3-3.8l10.5-4.6C50.5,31.9,48.3,38.7,43.4,43.5L43.4,43.5z"
		/>
</g>
</svg>
