<svg width="54" height="57" viewBox="0 0 54 57" fill="none" xmlns="http://www.w3.org/2000/svg">
<path d="M52.3846 47.9744L40 35C38.3846 37.8205 35.6923 40.641 33 42.3333L45.3846 55.3077C47.5385 57.5641 50.7692 57.5641 52.3846 55.3077C54.5385 53.6154 54.5385 50.2308 52.3846 47.9744Z" fill="#D3DCEA"/>
<path d="M41 21.7867C41 9.74667 31.7067 0 20.7733 0C9.29333 0 0 9.74667 0 21.7867C0 33.2533 9.29333 43 20.7733 43C31.7067 43 41 33.2533 41 21.7867ZM20.7733 37.84C12.0267 37.84 4.92 30.3867 4.92 21.7867C4.92 12.6133 12.0267 5.16 20.7733 5.16C28.9733 5.16 36.08 12.6133 36.08 21.7867C36.08 30.3867 28.9733 37.84 20.7733 37.84Z" fill="#D3DCEA"/>
<path d="M9 21H12C12 16.0909 15.5 12.2727 20 12.2727V9C13.5 9 9 13.9091 9 21Z" fill="#D3DCEA"/>
</svg>
