<svg width="48" height="48" viewBox="0 0 48 48" fill="none" xmlns="http://www.w3.org/2000/svg">
<path d="M38.9864 18.3538C25.4188 12.3116 14.221 15.8313 9.18495 18.1191C8.41473 19.9376 8 21.9908 8 24.1026C8 25.4519 8.17774 26.7424 8.47398 27.9743C11.0216 27.9743 15.0504 28.5609 17.3019 31.7287C19.257 34.4858 19.731 37.3602 19.731 39.4134C21.0937 39.7654 22.5156 40 23.9968 40C25.4188 40 26.7814 39.824 28.1441 39.472C28.1441 37.4189 28.6181 34.4858 30.5733 31.7873C32.8839 28.5609 37.0313 28.033 39.5197 28.033C39.8159 26.8011 39.9936 25.5105 39.9936 24.1613C40.0529 22.0495 39.6974 20.1136 38.9864 18.3538ZM24.0561 26.6838C22.5156 26.6838 21.2122 25.4519 21.2122 23.868C21.2122 22.3428 22.4564 21.0522 24.0561 21.0522C25.5965 21.0522 26.8999 22.2841 26.8999 23.868C26.8407 25.4519 25.5965 26.6838 24.0561 26.6838Z" fill="#D3DCEA"/>
<path d="M24.0297 0C10.7658 0 0 10.7791 0 23.9999C0 37.2206 10.7658 47.9998 23.9703 47.9998C37.2342 48.0593 48 37.2802 48 23.9999C48 10.7195 37.2342 0 24.0297 0ZM24.0297 42.3422C13.9182 42.3422 5.71004 34.1239 5.71004 23.9999C5.71004 13.8759 13.9182 5.65754 24.0297 5.65754C34.1413 5.65754 42.3494 13.8759 42.3494 23.9999C42.3494 34.1239 34.1413 42.3422 24.0297 42.3422Z" fill="#D3DCEA"/>
</svg>
