<svg width="45" height="55" viewBox="0 0 45 55" fill="none" xmlns="http://www.w3.org/2000/svg">
<path d="M28.481 0H16.519C7.40506 0 0 12.3444 0 27.5C0 42.7167 7.40506 55 16.519 55H28.481C37.5949 55 45 42.7167 45 27.5C45 12.3444 37.5949 0 28.481 0ZM28.481 8.49444C34.8038 8.49444 39.9304 17.05 39.9304 27.5C39.9304 38.0111 34.8038 46.5056 28.481 46.5056C22.2152 46.5056 17.0886 38.0111 17.0886 27.5C17.0886 16.9889 22.2152 8.49444 28.481 8.49444ZM31.2722 13.2C31.5 12.4667 31.3291 11.7333 30.8165 11.4889C30.7595 11.4889 29.6203 11 28.481 11C27.3418 11 26.2595 11.4889 26.2025 11.4889C25.6899 11.6722 25.519 12.4667 25.7468 13.2L28.0253 19.8C28.1392 20.1667 28.3101 20.35 28.481 20.35C28.6519 20.35 28.8228 20.1667 28.9367 19.8L31.2722 13.2ZM30.8165 43.5111C31.3291 43.3278 31.5 42.5333 31.2722 41.8L28.9937 35.2611C28.8797 34.8944 28.7089 34.7111 28.538 34.7111C28.3671 34.7111 28.1962 34.8944 28.0823 35.2611L25.8038 41.8C25.5759 42.5333 25.7468 43.2667 26.2595 43.5111C26.3165 43.5111 27.4557 44 28.5949 44C29.6203 44 30.7595 43.5111 30.8165 43.5111ZM32.2975 23.0389C32.0696 23.7722 32.2405 24.4444 32.7532 24.4444H37.3101C37.8228 24.4444 38.1076 23.7111 37.9937 22.9167C37.9937 22.7944 37.6519 20.9 37.0823 19.3111C36.5127 17.7222 35.7152 16.3167 35.6582 16.2556C35.4873 16.0111 35.3165 15.8278 35.1456 15.8278C34.9177 15.8278 34.6899 16.0722 34.5759 16.5L32.2975 23.0389ZM24.7215 32.0222C25.0063 31.2889 24.7785 30.6778 24.2658 30.6778H19.7089C19.1962 30.6778 18.9114 31.35 19.0253 32.1444C19.0253 32.2667 19.3671 34.1 19.9367 35.75C20.5063 37.3389 21.3038 38.7444 21.3608 38.8056C21.5316 39.05 21.7025 39.1722 21.8734 39.1722C22.1013 39.1722 22.3291 38.9889 22.443 38.5611L24.7215 32.0222ZM37.9937 32.0833C38.1076 31.2889 37.8228 30.5556 37.3101 30.5556H32.7532C32.2405 30.5556 32.0696 31.2278 32.2975 31.9611L34.5759 38.5611C34.6899 38.9889 34.9177 39.1722 35.1456 39.1722C35.3165 39.1722 35.4873 39.05 35.6582 38.8056C35.7152 38.7444 36.5127 37.3389 37.0823 35.6889C37.6519 34.1 37.9367 32.2056 37.9937 32.0833ZM24.1519 24.4444C24.6646 24.4444 24.9494 23.7722 24.6646 23.0389L22.443 16.4389C22.3291 16.0111 22.1013 15.7667 21.8734 15.7667C21.7025 15.7667 21.5316 15.8889 21.3608 16.1333C21.3038 16.1944 20.5063 17.6 19.9367 19.1889C19.3671 20.7778 19.0823 22.7333 19.0253 22.8556C18.9114 23.65 19.1962 24.3833 19.7089 24.3833H23.6392L24.1519 24.4444ZM26.6582 27.5C26.6582 29.2111 27.4557 30.5556 28.481 30.5556C29.5063 30.5556 30.3038 29.2111 30.3038 27.5C30.3038 25.7889 29.5063 24.4444 28.481 24.4444C27.5127 24.4444 26.6582 25.7889 26.6582 27.5Z" fill="#D3DCEA"/>
</svg>
