<svg width="66" height="47" viewBox="0 0 66 47" fill="none" xmlns="http://www.w3.org/2000/svg">
<path d="M65.8308 44.0555L62.1853 35.4519C63.7674 32.584 64.7303 29.2749 64.7303 25.7452C64.6615 15.3032 56.7515 6.84668 46.9843 6.84668C45.9526 6.84668 44.9208 6.92021 43.8891 7.14082C46.5716 11.4794 48.1536 16.6269 48.1536 22.2155C48.1536 30.4515 44.7145 37.805 39.2806 42.8054C41.6193 43.9819 44.1642 44.6438 46.9155 44.6438C50.2171 44.6438 53.3124 43.6878 55.9949 41.9965L64.0425 45.8939C65.2118 46.4086 66.3123 45.232 65.8308 44.0555Z" fill="#D3DCEA"/>
<path d="M22.8412 0.0078125C11.3544 0.0078125 2.06872 9.93506 2.06872 22.2154C2.06872 26.4069 3.16925 30.3043 5.02639 33.6134L0.761847 43.6877C0.211583 45.0849 1.51846 46.482 2.75655 45.8202L12.1798 41.1875C15.275 43.173 18.9205 44.3495 22.8412 44.3495C34.3279 44.4231 43.6136 34.4958 43.6136 22.2154C43.6136 9.93506 34.3279 0.0078125 22.8412 0.0078125ZM22.7036 35.9665C21.1904 35.9665 19.8835 34.6429 19.8835 32.9516C19.8835 31.3338 21.1216 29.9366 22.7036 29.9366C24.2168 29.9366 25.5237 31.2603 25.5237 32.9516C25.4549 34.6429 24.2168 35.9665 22.7036 35.9665ZM26.1427 23.8332C24.8359 25.0098 24.8359 25.5981 24.8359 25.8187V26.8482C24.8359 27.4364 24.4232 27.8776 23.8729 27.8776H21.3279C20.7777 27.8776 20.365 27.4364 20.365 26.8482V25.8187C20.365 23.7597 21.3279 21.9213 23.3226 20.1565C24.6983 18.9064 26.2115 17.5092 26.2115 16.112C26.2115 14.053 25.3173 13.1706 23.0475 13.1706C19.6084 13.1706 19.5396 15.8914 19.5396 16.0385V16.5532C19.5396 17.1415 19.1269 17.5827 18.5766 17.5827H16.0317C15.4814 17.5827 15.0687 17.1415 15.0687 16.5532V16.0385C15.0687 13.0235 17.201 8.46436 22.9787 8.46436C28.6189 8.46436 30.6136 12.4353 30.6136 16.1856C30.6136 19.8623 27.7935 22.3625 26.1427 23.8332Z" fill="#D3DCEA"/>
</svg>
