<svg width="39" height="56" viewBox="0 0 39 56" fill="none" xmlns="http://www.w3.org/2000/svg">
<path d="M28.6331 46.365C28.6331 46.5985 28.4686 46.7737 28.2492 46.7737H5.10197C4.88256 46.7737 4.71801 46.5985 4.71801 46.365V9.63504C4.71801 9.40146 4.88256 9.22628 5.10197 9.22628H28.1943C28.4137 9.22628 28.5783 9.40146 28.5783 9.63504V13.6642H33.2955V6.77372C33.4052 3.09489 30.6078 0.0583942 27.1521 0H6.14414C2.68852 0.0583942 -0.0540426 3.09489 0.00080861 6.77372V49.2263C-0.0540426 52.9051 2.68852 55.9416 6.14414 56H27.1521C30.6078 55.9416 33.3503 52.9051 33.2955 49.2263V42.2774H28.5783V46.365H28.6331ZM18.4308 53.0219H14.9203C14.0427 53.0219 13.3845 52.2628 13.3845 51.3869C13.3845 50.4526 14.0976 49.7518 14.9203 49.7518H18.4308C19.3084 49.7518 19.9666 50.5109 19.9666 51.3869C19.9666 52.3212 19.3084 53.0219 18.4308 53.0219ZM35.8186 17.8102H18.7599C17.0047 17.8102 15.5785 19.3285 15.5785 21.1387V34.8029C15.5785 36.6715 17.0047 38.1898 18.7599 38.1898H21.9413V42.0438C21.9413 42.3942 22.2155 42.7445 22.5995 42.7445C22.764 42.7445 22.9286 42.6861 23.0383 42.5693L27.0973 38.2482V38.1898H35.8186C37.5739 38.1898 39 36.6715 39 34.8029V21.1387C39 19.2701 37.5739 17.8102 35.8186 17.8102ZM25.9454 32C25.9454 31.4161 26.3842 30.9489 26.9876 30.8905H32.5276C33.1309 30.8905 33.5697 31.4161 33.5697 32C33.5697 32.5839 33.0761 33.1095 32.5276 33.1095H26.9876C26.3842 33.1679 25.9454 32.6423 25.9454 32ZM21.0088 27.9708C21.0088 27.3285 21.5025 26.8613 22.051 26.8613H32.4727C33.0761 26.8613 33.5149 27.3869 33.5149 27.9708C33.5149 28.5547 33.0212 29.0803 32.4727 29.0803H22.051C21.5025 29.1387 21.0088 28.6131 21.0088 27.9708ZM21.0088 24C21.0088 23.3577 21.5025 22.8905 22.051 22.8905H32.4727C33.0761 22.8905 33.5149 23.4161 33.5149 24C33.5149 24.6423 33.0212 25.1095 32.4727 25.1095H22.051C21.5025 25.1095 21.0088 24.6423 21.0088 24Z" fill="#D3DCEA"/>
</svg>
