<?xml version="1.0" encoding="utf-8"?>
<!-- Generator: Adobe Illustrator 25.2.3, SVG Export Plug-In . SVG Version: 6.00 Build 0)  -->
<svg version="1.1" id="Layer_1" xmlns="http://www.w3.org/2000/svg" xmlns:xlink="http://www.w3.org/1999/xlink" x="0px" y="0px"
	 viewBox="0 0 49 53" style="enable-background:new 0 0 49 53;" xml:space="preserve">
<style type="text/css">
	.st0{fill:#D3DCEA;}
</style>
<path class="st0" d="M13.3,20.2H8c-0.3,0-0.6,0.3-0.6,0.6v4.7c0,0.3,0.3,0.6,0.6,0.6h5.3c0.3,0,0.6-0.3,0.6-0.6v-4.7
	C13.8,20.5,13.6,20.2,13.3,20.2z"/>
<path class="st0" d="M27.8,26.1h5.3c0.3,0,0.6-0.3,0.6-0.6v-4.7c0-0.3-0.3-0.6-0.6-0.6h-5.3c-0.3,0-0.6,0.3-0.6,0.6v4.7
	C27.2,25.8,27.5,26.1,27.8,26.1z"/>
<path class="st0" d="M23.1,20.2h-5.3c-0.3,0-0.6,0.3-0.6,0.6v4.7c0,0.3,0.3,0.6,0.6,0.6h5.3c0.3,0,0.6-0.3,0.6-0.6v-4.7
	C23.7,20.5,23.5,20.2,23.1,20.2z"/>
<path class="st0" d="M13.3,29.9H8c-0.3,0-0.6,0.3-0.6,0.6v4.7c0,0.3,0.3,0.6,0.6,0.6h5.3c0.3,0,0.6-0.3,0.6-0.6v-4.7
	C13.8,30.1,13.6,29.9,13.3,29.9z"/>
<path class="st0" d="M23.1,29.9h-5.3c-0.3,0-0.6,0.3-0.6,0.6v4.7c0,0.3,0.3,0.6,0.6,0.6h5.3c0.3,0,0.6-0.3,0.6-0.6v-4.7
	C23.7,30.1,23.5,29.9,23.1,29.9z"/>
<path class="st0" d="M40.6,29V6.9c0-1.4-1-2.5-2.3-2.5h-5V4.1c0-2-1.5-3.7-3.4-3.7h-2.6c-1.9,0-3.4,1.7-3.4,3.7v0.2h-6.4V4.1
	c0-2-1.5-3.7-3.4-3.7h-2.6c-1.9,0-3.4,1.7-3.4,3.7v0.2H2.7c-1.3,0-2.3,1.1-2.3,2.5v33.6c0,1.4,1,2.5,2.3,2.5h22.7
	c1.1,5.6,5.7,9.8,11.2,9.8c6.3,0,11.5-5.5,11.5-12.3C48.1,35.2,44.9,30.7,40.6,29z M26.7,4.1c0-0.3,0.2-0.5,0.5-0.5h2.6
	c0.3,0,0.5,0.2,0.5,0.5V8c0,0.3-0.2,0.5-0.5,0.5h-2.6c-0.3,0-0.5-0.2-0.5-0.5V4.1z M10.8,4.1c0-0.3,0.2-0.5,0.5-0.5h2.6
	c0.3,0,0.5,0.2,0.5,0.5V8c0,0.3-0.2,0.5-0.5,0.5h-2.6c-0.3,0-0.5-0.2-0.5-0.5V4.1z M3.6,16.3h33.8v11.9c-0.3-0.1-0.6-0.1-0.8-0.1
	c-6,0-11,5-11.4,11.4H3.6V16.3z M36.6,49.3c-4.6,0-8.3-4-8.3-8.9s3.7-8.9,8.3-8.9c4.6,0,8.3,4,8.3,8.9S41.2,49.3,36.6,49.3z"/>
<path class="st0" d="M35.5,43.3L35.5,43.3c-1,0-1.8-0.8-1.8-1.8v-4.6c0-1,0.8-1.8,1.8-1.8h0c1,0,1.8,0.8,1.8,1.8v4.6
	C37.3,42.5,36.5,43.3,35.5,43.3z"/>
<path class="st0" d="M41.9,41.5L41.9,41.5c0,1-0.8,1.8-1.8,1.8h-4.6c-1,0-1.8-0.8-1.8-1.8l0,0c0-1,0.8-1.8,1.8-1.8h4.6
	C41.1,39.8,41.9,40.6,41.9,41.5z"/>
</svg>
