<?xml version="1.0" encoding="utf-8"?>
<!-- Generator: Adobe Illustrator 25.2.3, SVG Export Plug-In . SVG Version: 6.00 Build 0)  -->
<svg version="1.1" id="Layer_1" xmlns="http://www.w3.org/2000/svg" xmlns:xlink="http://www.w3.org/1999/xlink" x="0px" y="0px"
	 viewBox="0 0 66 47" style="enable-background:new 0 0 66 47;" xml:space="preserve">
<style type="text/css">
	.st0{fill:#D3DCEA;}
</style>
<path class="st0" d="M65.8,44.1l-3.6-8.6c1.6-2.9,2.5-6.2,2.5-9.7C64.7,15.3,56.8,6.8,47,6.8c-1,0-2.1,0.1-3.1,0.3
	c2.7,4.3,4.3,9.5,4.3,15.1c0,8.2-3.4,15.6-8.9,20.6c2.3,1.2,4.9,1.8,7.6,1.8c3.3,0,6.4-1,9.1-2.6l8,3.9
	C65.2,46.4,66.3,45.2,65.8,44.1z"/>
<path class="st0" d="M22.8,0C11.4,0,2.1,9.9,2.1,22.2c0,4.2,1.1,8.1,3,11.4L0.8,43.7c-0.6,1.4,0.8,2.8,2,2.1l9.4-4.6
	c3.1,2,6.7,3.2,10.7,3.2c11.5,0.1,20.8-9.9,20.8-22.1C43.6,9.9,34.3,0,22.8,0z M22.7,36c-1.5,0-2.8-1.3-2.8-3c0-1.6,1.2-3,2.8-3
	c1.5,0,2.8,1.3,2.8,3C25.5,34.6,24.2,36,22.7,36z M26.1,23.8c-1.3,1.2-1.3,1.8-1.3,2v1c0,0.6-0.4,1-1,1h-2.5c-0.6,0-1-0.4-1-1v-1
	c0-2.1,1-3.9,3-5.7c1.4-1.3,2.9-2.6,2.9-4c0-2.1-0.9-2.9-3.2-2.9c-3.4,0-3.5,2.7-3.5,2.9v0.5c0,0.6-0.4,1-1,1H16c-0.6,0-1-0.4-1-1
	V16c0-3,2.1-7.6,7.9-7.6c5.6,0,7.6,4,7.6,7.7C30.6,19.9,27.8,22.4,26.1,23.8z"/>
</svg>
